<svg xmlns="http://www.w3.org/2000/svg" width="256" height="256"><path fill="#1976D2" fill-opacity=".259" fill-rule="evenodd" d="M0 128.011v125.997l128.25-.254 128.25-.254.254-126 .254-126-128.504.258L0 2.015zM.485 128c0 69.575.119 98.037.265 63.25s.146-91.713 0-126.5S.485 58.425.485 128"/><path fill="#1976D2" fill-opacity=".243" fill-rule="evenodd" d="M116.5 2.978c-12.025 1.119-30.388 5.327-34.295 7.857-1.46.945-.995 4.806 3.388 28.165 6.213 33.114 14.232 58.931 24.849 80 7.517 14.919 7.326 14.693 13.01 15.376 6.335.761 12.406.769 15.202.019 2.045-.549 2.172-1.25 2.5-13.834.236-9.022.765-13.761 1.658-14.836 1.113-1.34 4.48-1.595 22.254-1.685 20.61-.105 24.16.351 26.169 3.36.404.605.741 6.837.75 13.85L192 134l3.75.182c3.845.188 15.582-.241 15.962-.582.116-.105-.899-4.22-2.256-9.145-2.919-10.594-5.75-25.465-7.941-41.709-1.451-10.76-5.493-54.338-5.508-59.395-.006-1.691-1.905-3.129-8.914-6.749C166.414 5.922 139.88.801 116.5 2.978M55.94 24.19c-10.108 6.648-24.991 20.696-31.734 29.953l-4.111 5.643 3.5 15.646C29.014 99.657 37.8 122.721 45.24 132.25c1.61 2.062 2.642 3.75 2.293 3.75-.35 0 .505 1.057 1.899 2.35 1.395 1.292 2.205 2.714 1.802 3.16-.404.446-.237.527.371.181.607-.346 2.182.591 3.5 2.083l2.395 2.712-2.5-1.993-2.5-1.993 1.911 2.256c1.05 1.241 2.125 2.042 2.387 1.78s1.722.41 3.243 1.494c1.522 1.083 3.036 1.97 3.363 1.97.328 0 .596-3.3.596-7.333 0-5.097.381-7.393 1.25-7.527.688-.106 8.675-.447 17.75-.759 9.075-.311 16.686-.747 16.913-.97s-2.147-5.757-5.277-12.299C84.381 99.677 74.525 65.772 68.877 32.5c-1.214-7.15-2.497-13.342-2.852-13.76-.354-.418-4.893 2.035-10.085 5.45m156.557 15.06c.283 2.888.975 10.425 1.538 16.75 3.616 40.616 11.214 77.911 15.9 78.045.861.025 3.973.291 6.916.592 5.796.593 12.149-.223 12.149-1.561 0-.459 1.552-3.411 3.449-6.562l3.45-5.729.358 6.358.358 6.357.192-7.691c.107-4.27-.252-7.966-.807-8.309-.55-.34-1-1.96-1-3.601 0-4.497-2.782-17.439-5.605-26.074-3.172-9.701-9.977-23.083-16.107-31.675C228.253 49.094 214.332 34 212.859 34c-.482 0-.645 2.362-.362 5.25M6.631 87.75c-4.212 13.076-4.831 17.102-5.342 34.751-.555 19.127.402 27.107 4.895 40.843 2.56 7.826 9.393 22.221 12.46 26.25 1.296 1.702 2.356 3.427 2.356 3.832 0 .88 7.173 9.929 8.25 10.407.412.184.75.784.75 1.334s1.541 2.496 3.424 4.325 3.159 3.592 2.834 3.917-.152.591.384.591c.537 0 1.849.708 2.917 1.574s1.309 1.246.536.846c-.923-.479-1.16-.334-.69.425.392.635 1.431 1.155 2.308 1.155s3.395 1.912 5.596 4.25 3.668 3.575 3.259 2.75c-.408-.825.187-.375 1.323 1s2.088 2.05 2.117 1.5.508-.218 1.065.738c1.27 2.179 5.547 4.684 4.461 2.612-.389-.743.119-.39 1.129.783 2.409 2.797 6.089 4.638 7.512 3.759.637-.394.861-.259.511.307-.774 1.253 4.064 3.573 5.543 2.659.595-.367.795-.205.445.361-.669 1.082 9.992 5.414 13.902 5.648 1.228.073 2.051.426 1.831.783-.434.702 10.424 3.253 20.045 4.71 8.512 1.288 24.706 1.411 27.862.211L141 249.05v-38.025c0-20.914-.381-38.025-.847-38.025s-4.601-2.513-9.189-5.584c-7.722-5.169-8.681-5.548-12.903-5.106-2.509.263-8.386 1.687-13.061 3.166-11.288 3.569-25.819 4.455-35 2.134-19.124-4.835-33.808-18.15-45.336-41.11-4.797-9.553-11.562-28.199-13.697-37.75C10.26 85.588 9.34 83 8.921 83s-1.449 2.138-2.29 4.75M221.5 166.218c-4.4 2.265-12.725 5.793-18.5 7.84l-10.5 3.722-.266 27.643-.266 27.644 2.727-1.784c2.092-1.367 2.517-1.433 1.824-.283-.803 1.333-.689 1.333 1.025 0 1.061-.825 2.757-2.4 3.769-3.5 1.018-1.107 1.543-1.33 1.176-.5-.364.825.316.375 1.511-1s1.843-1.873 1.44-1.107c-.404.766 1.306-.134 3.8-2s4.381-3.654 4.194-3.973 2.225-3.019 5.362-6l5.703-5.42-4.999 5.5-5 5.5 5.205-4.918c2.863-2.705 4.993-5.262 4.734-5.681s.016-1.064.612-1.432c2.032-1.256 11.629-14.951 15.746-22.469 3.413-6.234 9.203-19.774 9.203-21.523 0-.262-4.613-.455-10.25-.427-10.003.049-10.443.149-18.25 4.168M44 220.378c0 .207.788.995 1.75 1.75 1.586 1.243 1.621 1.208.378-.378-1.307-1.666-2.128-2.195-2.128-1.372"/><path fill="#1976D2" fill-opacity=".944" fill-rule="evenodd" d="M113.5 3.676c-6.457.811-18.779 3.475-25.109 5.43l-6.648 2.054.631 5.367c2.327 19.797 10.837 56.352 17.689 75.985 4.473 12.815 11.871 29.293 16.27 36.238l2.692 4.25H141v-13.045c0-12.518.099-13.145 2.455-15.5 2.449-2.45 2.499-2.455 23.325-2.455h20.871l2.425 2.577c2.264 2.408 2.446 3.43 2.753 15.5l.33 12.923h9.037c8.903 0 9.027-.034 8.372-2.25-6.451-21.806-12.264-60.685-14.092-94.25-.33-6.05-.805-12.012-1.056-13.248-1.021-5.024-28.693-15.874-47.674-18.693-9.506-1.411-26.537-1.85-34.246-.883M56 24.662c-8.975 5.899-27.754 23.84-32.402 30.956l-2.69 4.119 2.109 10.381c7.43 36.588 19.751 63.193 34.781 75.11l4.702 3.727.3-6.686c.166-3.677.783-7.267 1.373-7.977.8-.965 5.458-1.292 18.393-1.292h17.32l-5.921-12.25c-11.371-23.526-20.399-55.776-27.431-98-.344-2.062-.942-3.733-1.329-3.713-.388.021-4.53 2.552-9.205 5.625m157 11.785c0 5.102 3.341 37.841 5.108 50.053 2.262 15.635 5.811 32.195 8.679 40.5l1.899 5.5 9.563.285 9.564.285 3.715-6.115c3.642-5.996 3.701-6.255 3.015-13.216-2.801-28.426-17.142-56.687-38.902-76.663-2.307-2.118-2.641-2.198-2.641-.629M6.166 91.276C2.574 103.574 1.983 107.097 1.348 120c-1.07 21.741 2.523 39.066 12.176 58.71 17.245 35.093 49.284 59.384 89.476 67.836 8.366 1.76 31.265 3.106 35.356 2.08l2.644-.664V174.19l-4.75-2.75c-2.613-1.512-6.39-4.03-8.394-5.595-4.661-3.639-10.038-3.745-20.293-.397-42.064 13.731-73.764-6.613-91.857-58.948-1.902-5.5-4.04-12.608-4.751-15.796s-1.605-5.988-1.986-6.223c-.381-.236-1.643 2.822-2.803 6.795m213.552 76.302c-4.831 2.462-12.706 5.794-17.5 7.405l-8.718 2.929-.266 26.544c-.156 15.501.112 26.544.645 26.544 1.929 0 16.96-11.505 23.957-18.337 12.047-11.763 20.934-24.381 26.952-38.266 5.388-12.434 5.93-11.405-5.971-11.346-10.203.05-10.414.1-19.099 4.527"/></svg>